<svg xmlns="http://www.w3.org/2000/svg" viewBox="0 0 105 115.53"><defs><style>.cls-1{fill:#4a4a4a;}.cls-2{fill:none;stroke:#4a4a4a;stroke-miterlimit:10;stroke-width:3px;}</style></defs><title>LogoText</title><g id="Layer_2" data-name="Layer 2"><g id="Layer_1-2" data-name="Layer 1"><path class="cls-1" d="M12.42,115.53C4.13,115.53,0,110.05,0,101.64,0,93,4.37,87.71,12.9,87.71a12.14,12.14,0,0,1,8,2.46,10.32,10.32,0,0,1,3.25,7H20.8a2.69,2.69,0,0,1-2.58-1.63c-.92-2-2.7-2.94-5.32-2.94-5.12,0-7.38,3.61-7.38,9,0,5.28,2.18,9,7.22,9a5.65,5.65,0,0,0,6-4.88h5.36C23.61,112,19.25,115.53,12.42,115.53Z"/><path class="cls-1" d="M29.57,88.15h2.82V98.23H43.46V88.15h5.6v27h-5.6V103.19H32.39v11.94h-5.6V91A2.86,2.86,0,0,1,29.57,88.15Z"/><path class="cls-1" d="M51.6,91c0-1.9.92-2.89,2.78-2.89h2.74v27H51.6Z"/><path class="cls-1" d="M72.2,105.53H65.38v9.6H59.86V91a2.86,2.86,0,0,1,2.78-2.89h9.17c5.71,0,8.69,3,8.69,8.69C80.5,102.16,77.6,105.53,72.2,105.53Zm-1.39-4.88c2.78,0,4.17-1.27,4.17-3.89s-1.31-3.93-3.89-3.93H65.46v7.82Z"/><path class="cls-1" d="M99.47,107.63c0-1.31-.79-2.18-2.46-2.66s-3.41-1-5.36-1.46c-5.28-1.35-7.9-3.81-7.9-7.39.12-5.67,3.5-8.45,10.16-8.41,6.36,0,9.65,2.78,10,8.37h-3.1a2.59,2.59,0,0,1-2.46-1.58c-.91-1.55-2.54-2.31-4.88-2.31-2.86,0-4.29,1.12-4.41,3.18,0,1.71,1.71,2.94,5.24,3.73A61.47,61.47,0,0,1,100.7,101q4.53,1.55,4.29,6.66c-.32,5.28-3.89,7.9-10.72,7.9-7.14,0-10.75-3-10.91-8.85h5.36c.19,2.86,2,4.29,5.55,4.29S99.51,109.86,99.47,107.63Z"/><path class="cls-1" d="M40.42,54.12c17.55,17.59-3.65,26-5.61,16.35-1.47-7.31-15.36-19.83,2.68-36.6,9.45-8.78,28.77,32.84,26.28,28.82C48.2,37.44,21.54,35.21,40.42,54.12Z"/><path class="cls-1" d="M51.89,40c-17.55-17.59,3.66-26,5.61-16.35,1.47,7.31,15.36,19.83-2.68,36.6C45.38,69,26.06,27.37,28.54,31.39,44.11,56.64,70.77,58.87,51.89,40Z"/><path class="cls-1" d="M50.48,69.72c14-1.39,10.11,10.94,5.16,8.32-3.73-2-14.21-.37-15.09-14.3-.47-7.3,24.73-.84,22.07-1.19C46,60.32,35.41,71.22,50.48,69.72Z"/><circle class="cls-1" cx="63.89" cy="62.66" r="3.66"/><circle class="cls-1" cx="27.91" cy="30.34" r="1.83"/><path class="cls-1" d="M31.06,45.26c3.45-13.66,13.73-5.8,9.59-2-3.13,2.84-5.18,13.24-18.59,9.34-7-2,7.61-23.54,6.38-21.17C20.68,46.32,27.35,59.94,31.06,45.26Z"/><path class="cls-1" d="M69.2,38.1c2.86,13.79-9.82,11.2-7.74,6C63,40.19,60.35,29.93,74.11,27.59c7.21-1.22,3.43,24.51,3.5,21.83C78.08,32.62,66.13,23.27,69.2,38.1Z"/><path class="cls-1" d="M79.24,32.56c5.3-1,4.22,3.84,2.24,3-1.49-.63-5.43.32-6.23-5-.41-2.77,9.41-1.14,8.39-1.19C77.2,29.12,73.54,33.63,79.24,32.56Z"/><circle class="cls-2" cx="52.15" cy="46.17" r="33.5"/><path class="cls-1" d="M56.12,25.69c4.11,4.18-16.8-17.73-22.85-13s0,23.69,1.34,27.11c1,2.49-12.95-26.29-6.89-31S45.94,15.32,56.12,25.69Z"/><circle class="cls-1" cx="49.89" cy="3.66" r="3.66"/><path class="cls-1" d="M56.41,62.8c-4.1-4.18,16.81,17.73,22.86,13s0-23.7-1.34-27.11c-1-2.49,12.94,26.29,6.89,31S66.6,73.16,56.41,62.8Z"/></g></g></svg>