<svg xmlns="http://www.w3.org/2000/svg" viewBox="0 0 70 81.17"><defs><style>.cls-1{fill:#4a4a4a;}.cls-2{fill:none;stroke:#4a4a4a;stroke-miterlimit:10;stroke-width:3px;}</style></defs><title>Logo</title><g id="Layer_2" data-name="Layer 2"><g id="Layer_1-2" data-name="Layer 1"><path class="cls-1" d="M23.27,54.12c17.55,17.59-3.65,26-5.61,16.35-1.47-7.31-15.36-19.83,2.68-36.6,9.45-8.78,28.77,32.84,26.29,28.82C31.05,37.44,4.39,35.21,23.27,54.12Z"/><path class="cls-1" d="M34.74,40c-17.55-17.59,3.66-26,5.61-16.35,1.48,7.31,15.37,19.83-2.68,36.6C28.23,69,8.91,27.37,11.39,31.39,27,56.64,53.63,58.87,34.74,40Z"/><path class="cls-1" d="M33.34,69.72c14-1.39,10.1,10.94,5.15,8.32-3.73-2-14.21-.37-15.09-14.3-.46-7.3,24.73-.84,22.07-1.19C28.81,60.32,18.26,71.22,33.34,69.72Z"/><circle class="cls-1" cx="46.74" cy="62.66" r="3.66"/><circle class="cls-1" cx="10.76" cy="30.34" r="1.83"/><path class="cls-1" d="M13.92,45.26c3.44-13.66,13.72-5.8,9.58-2-3.13,2.84-5.18,13.24-18.58,9.34-7-2,7.6-23.54,6.37-21.17C3.54,46.32,10.21,59.94,13.92,45.26Z"/><path class="cls-1" d="M52.06,38.1c2.85,13.79-9.83,11.2-7.74,6C45.89,40.19,43.2,29.93,57,27.59c7.21-1.22,3.43,24.51,3.5,21.83C60.93,32.62,49,23.27,52.06,38.1Z"/><path class="cls-1" d="M62.09,32.56c5.3-1,4.22,3.84,2.25,3-1.49-.63-5.44.32-6.23-5-.42-2.77,9.4-1.14,8.38-1.19C60.06,29.12,56.39,33.63,62.09,32.56Z"/><circle class="cls-2" cx="35" cy="46.17" r="33.5"/><path class="cls-1" d="M39,25.69c4.1,4.18-16.81-17.73-22.86-13s0,23.69,1.34,27.11c1,2.49-12.94-26.29-6.89-31S28.79,15.32,39,25.69Z"/><circle class="cls-1" cx="32.74" cy="3.66" r="3.66"/><path class="cls-1" d="M39.26,62.8c-4.1-4.18,16.81,17.73,22.86,13s0-23.7-1.34-27.11c-1-2.49,12.94,26.29,6.89,31S49.45,73.16,39.26,62.8Z"/></g></g></svg>