<?xml version="1.0" encoding="UTF-8"?>
<svg xmlns="http://www.w3.org/2000/svg" xmlns:xlink="http://www.w3.org/1999/xlink" width="30pt" height="30pt" viewBox="0 0 30 30" version="1.1">
<g id="surface1">
<path style=" stroke:none;fill-rule:nonzero;fill:rgb(57.647059%,24.313725%,77.254902%);fill-opacity:1;" d="M 21.386719 2.605469 C 19.628906 0.867188 17.5 0 15 0 C 12.5 0 10.371094 0.867188 8.613281 2.605469 C 6.855469 4.34375 5.976562 6.445312 5.976562 8.90625 C 5.976562 10.390625 6.730469 12.871094 8.234375 16.347656 C 9.738281 19.820312 11.242188 22.984375 12.746094 25.835938 C 14.25 28.6875 15 30.074219 15 29.996094 C 15.234375 29.566406 15.554688 28.980469 15.964844 28.238281 C 16.375 27.496094 17.097656 26.101562 18.132812 24.050781 C 19.167969 22 20.078125 20.113281 20.859375 18.398438 C 21.640625 16.679688 22.363281 14.902344 23.027344 13.066406 C 23.691406 11.230469 24.023438 9.84375 24.023438 8.90625 C 24.023438 6.445312 23.144531 4.34375 21.386719 2.605469 Z M 16.933594 10.78125 C 16.386719 11.328125 15.730469 11.601562 14.972656 11.601562 C 14.210938 11.601562 13.554688 11.328125 13.007812 10.78125 C 12.460938 10.234375 12.1875 9.578125 12.1875 8.816406 C 12.1875 8.054688 12.460938 7.410156 13.007812 6.882812 C 13.554688 6.355469 14.210938 6.09375 14.972656 6.09375 C 15.730469 6.09375 16.386719 6.355469 16.933594 6.882812 C 17.480469 7.410156 17.753906 8.054688 17.753906 8.816406 C 17.753906 9.578125 17.480469 10.234375 16.933594 10.78125 Z M 16.933594 10.78125 "/>
</g>
</svg>
