<svg xmlns="http://www.w3.org/2000/svg" xmlns:xlink="http://www.w3.org/1999/xlink" version="1.1" width="483" height="483" style="enable-background:new 0 0 483 483;" xml:space="preserve"><rect id="backgroundrect" width="100%" height="100%" x="0" y="0" fill="none" stroke="none"/>
















<g class="currentLayer" style=""><title>Layer 1</title><g id="svg_1" class="selected" fill-opacity="1" fill="#b400ae">
	<path d="M395.72,0c-48.204,0-87.281,39.078-87.281,87.281c0,2.036,0.164,4.03,0.309,6.029l-161.233,75.674   c-15.668-14.971-36.852-24.215-60.231-24.215c-48.204,0.001-87.282,39.079-87.282,87.282c0,48.204,39.078,87.281,87.281,87.281   c15.206,0,29.501-3.907,41.948-10.741l69.789,58.806c-3.056,8.896-4.789,18.396-4.789,28.322c0,48.204,39.078,87.281,87.281,87.281   c48.205,0,87.281-39.078,87.281-87.281s-39.077-87.281-87.281-87.281c-15.205,0-29.5,3.908-41.949,10.74l-69.788-58.805   c3.057-8.891,4.789-18.396,4.789-28.322c0-2.035-0.164-4.024-0.308-6.029l161.232-75.674c15.668,14.971,36.852,24.215,60.23,24.215   c48.203,0,87.281-39.078,87.281-87.281C482.999,39.079,443.923,0,395.72,0z" id="svg_2" fill="#b400ae"/>
</g><g id="svg_3">
</g><g id="svg_4">
</g><g id="svg_5">
</g><g id="svg_6">
</g><g id="svg_7">
</g><g id="svg_8">
</g><g id="svg_9">
</g><g id="svg_10">
</g><g id="svg_11">
</g><g id="svg_12">
</g><g id="svg_13">
</g><g id="svg_14">
</g><g id="svg_15">
</g><g id="svg_16">
</g><g id="svg_17">
</g></g></svg>