<svg xmlns="http://www.w3.org/2000/svg" viewBox="0 0 105 27.82"><defs><style>.cls-1{fill:#4a4a4a;}</style></defs><title>Scritta</title><g id="Layer_2" data-name="Layer 2"><g id="Layer_1-2" data-name="Layer 1"><path class="cls-1" d="M12.42,27.82C4.13,27.82,0,22.34,0,13.93,0,5.24,4.37,0,12.9,0a12.14,12.14,0,0,1,8,2.46,10.32,10.32,0,0,1,3.25,7H20.8a2.69,2.69,0,0,1-2.58-1.63c-.92-1.95-2.7-2.94-5.32-2.94-5.12,0-7.38,3.61-7.38,9.05,0,5.28,2.18,9,7.22,9a5.64,5.64,0,0,0,6-4.88h5.36C23.61,24.29,19.25,27.82,12.42,27.82Z"/><path class="cls-1" d="M29.57.44h2.82V10.52H43.46V.44h5.6v27h-5.6V15.48H32.39v12h-5.6V3.33A2.86,2.86,0,0,1,29.57.44Z"/><path class="cls-1" d="M51.6,3.33c0-1.9.92-2.89,2.78-2.89h2.74v27H51.6Z"/><path class="cls-1" d="M72.2,17.82H65.38v9.61H59.86V3.33A2.86,2.86,0,0,1,62.64.44h9.17c5.71,0,8.69,3.05,8.69,8.69C80.5,14.45,77.6,17.82,72.2,17.82Zm-1.39-4.88C73.59,13,75,11.67,75,9.05s-1.31-3.93-3.89-3.93H65.46v7.82Z"/><path class="cls-1" d="M99.47,19.92c0-1.31-.79-2.18-2.46-2.66s-3.41-1-5.36-1.46c-5.28-1.35-7.9-3.81-7.9-7.39C83.87,2.74,87.25,0,93.91,0c6.36,0,9.65,2.78,10,8.37h-3.1a2.59,2.59,0,0,1-2.46-1.58c-.91-1.55-2.54-2.3-4.88-2.3-2.86,0-4.29,1.11-4.41,3.17,0,1.71,1.71,2.94,5.24,3.73a61.47,61.47,0,0,1,6.43,1.87q4.53,1.55,4.29,6.66c-.32,5.28-3.89,7.9-10.72,7.9-7.14,0-10.75-3-10.91-8.85h5.36c.19,2.86,2,4.29,5.55,4.29S99.51,22.15,99.47,19.92Z"/></g></g></svg>